<svg width="40" height="40" viewBox="0 0 40 40" fill="none" xmlns="http://www.w3.org/2000/svg">
<path d="M37.0125 4.09214C36.8189 3.92491 36.5832 3.81368 36.331 3.77046C36.0788 3.72723 35.8196 3.75364 35.5813 3.84683L3.91565 16.239C3.46688 16.4135 3.08694 16.7291 2.83304 17.1382C2.57913 17.5473 2.465 18.0279 2.50783 18.5075C2.55066 18.9871 2.74814 19.4398 3.07052 19.7974C3.3929 20.1551 3.82275 20.3984 4.29534 20.4906L12.5 22.1015V31.25C12.4984 31.7483 12.6465 32.2356 12.9251 32.6487C13.2037 33.0619 13.6 33.3818 14.0625 33.5671C14.5244 33.7557 15.0323 33.801 15.5203 33.6971C16.0082 33.5931 16.4536 33.3448 16.7985 32.9843L20.7547 28.8812L27.0313 34.375C27.4841 34.7766 28.0682 34.9989 28.6735 35C28.9387 34.9997 29.2023 34.9581 29.4547 34.8765C29.8671 34.7457 30.2381 34.509 30.5306 34.1902C30.8231 33.8714 31.027 33.4815 31.1219 33.0593L37.4641 5.46871C37.5208 5.21988 37.5088 4.9603 37.4292 4.7178C37.3497 4.4753 37.2056 4.25902 37.0125 4.09214ZM27.4594 9.71714L13.461 19.7421L5.71097 18.2218L27.4594 9.71714ZM15 31.25V23.8312L18.8735 27.2281L15 31.25ZM28.6766 32.5L15.7578 21.1718L34.3516 7.84527L28.6766 32.5Z" fill="#FDBB1F"/>
</svg>
